<svg id="Layer_1" data-name="Layer 1" xmlns="http://www.w3.org/2000/svg" xmlns:xlink="http://www.w3.org/1999/xlink" viewBox="0 0 393.17 158.66"><defs><style>.cls-1{fill:none;}.cls-2{clip-path:url(#clip-path);}.cls-3{fill:#fff;}</style><clipPath id="clip-path" transform="translate(-0.83 0.83)"><rect class="cls-1" width="394" height="157"/></clipPath></defs><g class="cls-2"><path class="cls-3" d="M380.88,53.09H369.27V64.83h11.61Z" transform="translate(-0.83 0.83)"/><path class="cls-3" d="M380.88,39.82H369.27V51.56h11.61Z" transform="translate(-0.83 0.83)"/><path class="cls-3" d="M394,53.09H382.4V64.83H394Z" transform="translate(-0.83 0.83)"/><path class="cls-3" d="M394,79.65H382.4V91.39H394Z" transform="translate(-0.83 0.83)"/><path class="cls-3" d="M380.88,79.65H369.27V91.39h11.61Z" transform="translate(-0.83 0.83)"/><path class="cls-3" d="M394,93H382.4V104.7H394Z" transform="translate(-0.83 0.83)"/><path class="cls-3" d="M394,106.26H382.4V118H394Z" transform="translate(-0.83 0.83)"/><path class="cls-3" d="M380.88,106.26H369.27V118h11.61Z" transform="translate(-0.83 0.83)"/><path class="cls-3" d="M380.88,93H369.27V104.7h11.61Z" transform="translate(-0.83 0.83)"/><path class="cls-3" d="M394,119.52H382.4v11.74H394Z" transform="translate(-0.83 0.83)"/><path class="cls-3" d="M380.88,119.52H369.27v11.74h11.61Z" transform="translate(-0.83 0.83)"/><path class="cls-3" d="M394,132.83H382.4v11.74H394Z" transform="translate(-0.83 0.83)"/><path class="cls-3" d="M380.88,132.83H369.27v11.74h11.61Z" transform="translate(-0.83 0.83)"/><path class="cls-3" d="M380.88,146.09H369.27v11.74h11.61Z" transform="translate(-0.83 0.83)"/><path class="cls-3" d="M367.71,132.83H356.1v11.74h11.61Z" transform="translate(-0.83 0.83)"/><path class="cls-3" d="M354.54,132.83h-11.6v11.74h11.6Z" transform="translate(-0.83 0.83)"/><path class="cls-3" d="M367.71,146.09H356.1v11.74h11.61Z" transform="translate(-0.83 0.83)"/><path class="cls-3" d="M354.54,146.09h-11.6v11.74h11.6Z" transform="translate(-0.83 0.83)"/><path class="cls-3" d="M341.37,132.83h-11.6v11.74h11.6Z" transform="translate(-0.83 0.83)"/><path class="cls-3" d="M341.37,146.09h-11.6v11.74h11.6Z" transform="translate(-0.83 0.83)"/><path class="cls-3" d="M367.71,106.26H356.1V118h11.61Z" transform="translate(-0.83 0.83)"/><path class="cls-3" d="M367.71,93H356.1V104.7h11.61Z" transform="translate(-0.83 0.83)"/><path class="cls-3" d="M354.54,106.26h-11.6V118h11.6Z" transform="translate(-0.83 0.83)"/><path class="cls-3" d="M354.54,93h-11.6V104.7h11.6Z" transform="translate(-0.83 0.83)"/><path class="cls-3" d="M341.37,106.26h-11.6V118h11.6Z" transform="translate(-0.83 0.83)"/><path class="cls-3" d="M341.37,93h-11.6V104.7h11.6Z" transform="translate(-0.83 0.83)"/><path class="cls-3" d="M328.2,106.26H316.6V118h11.6Z" transform="translate(-0.83 0.83)"/><path class="cls-3" d="M328.2,93H316.6V104.7h11.6Z" transform="translate(-0.83 0.83)"/><path class="cls-3" d="M315.08,93h-11.6V104.7h11.6Z" transform="translate(-0.83 0.83)"/><path class="cls-3" d="M328.2,79.65H316.6V91.39h11.6Z" transform="translate(-0.83 0.83)"/><path class="cls-3" d="M315.08,79.65h-11.6V91.39h11.6Z" transform="translate(-0.83 0.83)"/><path class="cls-3" d="M394,66.39H382.4V78.13H394Z" transform="translate(-0.83 0.83)"/><path class="cls-3" d="M380.88,66.39H369.27V78.13h11.61Z" transform="translate(-0.83 0.83)"/><path class="cls-3" d="M328.2,66.39H316.6V78.13h11.6Z" transform="translate(-0.83 0.83)"/><path class="cls-3" d="M315.08,66.39h-11.6V78.13h11.6Z" transform="translate(-0.83 0.83)"/><path class="cls-3" d="M315.08,53.09h-11.6V64.83h11.6Z" transform="translate(-0.83 0.83)"/><path class="cls-3" d="M328.2,53.09H316.6V64.83h11.6Z" transform="translate(-0.83 0.83)"/><path class="cls-3" d="M328.2,39.82H316.6V51.56h11.6Z" transform="translate(-0.83 0.83)"/><path class="cls-3" d="M341.37,53.09h-11.6V64.83h11.6Z" transform="translate(-0.83 0.83)"/><path class="cls-3" d="M341.37,39.82h-11.6V51.56h11.6Z" transform="translate(-0.83 0.83)"/><path class="cls-3" d="M354.54,53.09h-11.6V64.83h11.6Z" transform="translate(-0.83 0.83)"/><path class="cls-3" d="M354.54,39.82h-11.6V51.56h11.6Z" transform="translate(-0.83 0.83)"/><path class="cls-3" d="M367.71,53.09H356.1V64.83h11.61Z" transform="translate(-0.83 0.83)"/><path class="cls-3" d="M367.71,39.82H356.1V51.56h11.61Z" transform="translate(-0.83 0.83)"/><path class="cls-3" d="M249.28,66.39h-11.6V78.13h11.6Z" transform="translate(-0.83 0.83)"/><path class="cls-3" d="M262.45,53.09h-11.6V64.83h11.6Z" transform="translate(-0.83 0.83)"/><path class="cls-3" d="M262.45,39.82h-11.6V51.56h11.6Z" transform="translate(-0.83 0.83)"/><path class="cls-3" d="M275.58,53.09H264V64.83h11.61Z" transform="translate(-0.83 0.83)"/><path class="cls-3" d="M275.58,39.82H264V51.56h11.61Z" transform="translate(-0.83 0.83)"/><path class="cls-3" d="M288.74,53.09h-11.6V64.83h11.6Z" transform="translate(-0.83 0.83)"/><path class="cls-3" d="M288.74,39.82h-11.6V51.56h11.6Z" transform="translate(-0.83 0.83)"/><path class="cls-3" d="M236.12,53.09H224.51V64.83h11.61Z" transform="translate(-0.83 0.83)"/><path class="cls-3" d="M249.28,53.09h-11.6V64.83h11.6Z" transform="translate(-0.83 0.83)"/><path class="cls-3" d="M236.12,66.39H224.51V78.13h11.61Z" transform="translate(-0.83 0.83)"/><path class="cls-3" d="M236.12,79.65H224.51V91.39h11.61Z" transform="translate(-0.83 0.83)"/><path class="cls-3" d="M236.12,93H224.51V104.7h11.61Z" transform="translate(-0.83 0.83)"/><path class="cls-3" d="M236.12,106.26H224.51V118h11.61Z" transform="translate(-0.83 0.83)"/><path class="cls-3" d="M223,106.26H211.34V118H223Z" transform="translate(-0.83 0.83)"/><path class="cls-3" d="M223,93H211.34V104.7H223Z" transform="translate(-0.83 0.83)"/><path class="cls-3" d="M223,79.65H211.34V91.39H223Z" transform="translate(-0.83 0.83)"/><path class="cls-3" d="M223,66.39H211.34V78.13H223Z" transform="translate(-0.83 0.83)"/><path class="cls-3" d="M223,53.09H211.34V64.83H223Z" transform="translate(-0.83 0.83)"/><path class="cls-3" d="M236.12,39.82H224.51V51.56h11.61Z" transform="translate(-0.83 0.83)"/><path class="cls-3" d="M223,39.82H211.34V51.56H223Z" transform="translate(-0.83 0.83)"/><path class="cls-3" d="M144,12.47H132.42V24.21H144Z" transform="translate(-0.83 0.83)"/><path class="cls-3" d="M144-.83H132.42V10.91H144Z" transform="translate(-0.83 0.83)"/><path class="cls-3" d="M157.15-.83h-11.6V10.91h11.6Z" transform="translate(-0.83 0.83)"/><path class="cls-3" d="M170.32-.83h-11.6V10.91h11.6Z" transform="translate(-0.83 0.83)"/><path class="cls-3" d="M170.32,12.47h-11.6V24.21h11.6Z" transform="translate(-0.83 0.83)"/><path class="cls-3" d="M157.15,12.47h-11.6V24.21h11.6Z" transform="translate(-0.83 0.83)"/><path class="cls-3" d="M183.49-.83H171.88V10.91h11.61Z" transform="translate(-0.83 0.83)"/><path class="cls-3" d="M196.65,12.47h-11.6V24.21h11.6Z" transform="translate(-0.83 0.83)"/><path class="cls-3" d="M183.49,12.47H171.88V24.21h11.61Z" transform="translate(-0.83 0.83)"/><path class="cls-3" d="M183.49,25.74H171.88V37.48h11.61Z" transform="translate(-0.83 0.83)"/><path class="cls-3" d="M196.65,25.74h-11.6V37.48h11.6Z" transform="translate(-0.83 0.83)"/><path class="cls-3" d="M196.65,39h-11.6V50.78h11.6Z" transform="translate(-0.83 0.83)"/><path class="cls-3" d="M183.49,39H171.88V50.78h11.61Z" transform="translate(-0.83 0.83)"/><path class="cls-3" d="M183.49,52.3H171.88V64h11.61Z" transform="translate(-0.83 0.83)"/><path class="cls-3" d="M196.65,52.3h-11.6V64h11.6Z" transform="translate(-0.83 0.83)"/><path class="cls-3" d="M196.65,65.61h-11.6V77.35h11.6Z" transform="translate(-0.83 0.83)"/><path class="cls-3" d="M183.49,65.61H171.88V77.35h11.61Z" transform="translate(-0.83 0.83)"/><path class="cls-3" d="M183.49,78.87H171.88V90.61h11.61Z" transform="translate(-0.83 0.83)"/><path class="cls-3" d="M196.65,78.87h-11.6V90.61h11.6Z" transform="translate(-0.83 0.83)"/><path class="cls-3" d="M196.65,92.17h-11.6v11.74h11.6Z" transform="translate(-0.83 0.83)"/><path class="cls-3" d="M183.49,92.17H171.88v11.74h11.61Z" transform="translate(-0.83 0.83)"/><path class="cls-3" d="M183.49,105.48H171.88v11.74h11.61Z" transform="translate(-0.83 0.83)"/><path class="cls-3" d="M170.32,105.48h-11.6v11.74h11.6Z" transform="translate(-0.83 0.83)"/><path class="cls-3" d="M170.32,92.17h-11.6v11.74h11.6Z" transform="translate(-0.83 0.83)"/><path class="cls-3" d="M157.15,105.48h-11.6v11.74h11.6Z" transform="translate(-0.83 0.83)"/><path class="cls-3" d="M157.15,92.17h-11.6v11.74h11.6Z" transform="translate(-0.83 0.83)"/><path class="cls-3" d="M144,105.48H132.42v11.74H144Z" transform="translate(-0.83 0.83)"/><path class="cls-3" d="M144,92.17H132.42v11.74H144Z" transform="translate(-0.83 0.83)"/><path class="cls-3" d="M130.86,105.48h-11.6v11.74h11.6Z" transform="translate(-0.83 0.83)"/><path class="cls-3" d="M130.86,92.17h-11.6v11.74h11.6Z" transform="translate(-0.83 0.83)"/><path class="cls-3" d="M130.86,78.87h-11.6V90.61h11.6Z" transform="translate(-0.83 0.83)"/><path class="cls-3" d="M130.86,65.61h-11.6V77.35h11.6Z" transform="translate(-0.83 0.83)"/><path class="cls-3" d="M130.86,52.3h-11.6V64h11.6Z" transform="translate(-0.83 0.83)"/><path class="cls-3" d="M130.86,39h-11.6V50.78h11.6Z" transform="translate(-0.83 0.83)"/><path class="cls-3" d="M130.86,25.74h-11.6V37.48h11.6Z" transform="translate(-0.83 0.83)"/><path class="cls-3" d="M130.86,12.47h-11.6V24.21h11.6Z" transform="translate(-0.83 0.83)"/><path class="cls-3" d="M130.86-.83h-11.6V10.91h11.6Z" transform="translate(-0.83 0.83)"/><path class="cls-3" d="M117.69,12.47h-11.6V24.21h11.6Z" transform="translate(-0.83 0.83)"/><path class="cls-3" d="M117.69,25.74h-11.6V37.48h11.6Z" transform="translate(-0.83 0.83)"/><path class="cls-3" d="M117.69,39h-11.6V50.78h11.6Z" transform="translate(-0.83 0.83)"/><path class="cls-3" d="M117.69,52.3h-11.6V64h11.6Z" transform="translate(-0.83 0.83)"/><path class="cls-3" d="M117.69,65.61h-11.6V77.35h11.6Z" transform="translate(-0.83 0.83)"/><path class="cls-3" d="M117.69,78.87h-11.6V90.61h11.6Z" transform="translate(-0.83 0.83)"/><path class="cls-3" d="M117.69,92.17h-11.6v11.74h11.6Z" transform="translate(-0.83 0.83)"/><path class="cls-3" d="M25.6,105.48H14v11.74H25.6Z" transform="translate(-0.83 0.83)"/><path class="cls-3" d="M38.73,105.48H27.12v11.74H38.73Z" transform="translate(-0.83 0.83)"/><path class="cls-3" d="M51.89,105.48H40.29v11.74h11.6Z" transform="translate(-0.83 0.83)"/><path class="cls-3" d="M65.06,105.48H53.46v11.74h11.6Z" transform="translate(-0.83 0.83)"/><path class="cls-3" d="M78.23,105.48H66.63v11.74h11.6Z" transform="translate(-0.83 0.83)"/><path class="cls-3" d="M91.36,92.17H79.75v11.74H91.36Z" transform="translate(-0.83 0.83)"/><path class="cls-3" d="M78.23,92.17H66.63v11.74h11.6Z" transform="translate(-0.83 0.83)"/><path class="cls-3" d="M65.06,92.17H53.46v11.74h11.6Z" transform="translate(-0.83 0.83)"/><path class="cls-3" d="M51.89,92.17H40.29v11.74h11.6Z" transform="translate(-0.83 0.83)"/><path class="cls-3" d="M38.73,92.17H27.12v11.74H38.73Z" transform="translate(-0.83 0.83)"/><path class="cls-3" d="M25.6,92.17H14v11.74H25.6Z" transform="translate(-0.83 0.83)"/><path class="cls-3" d="M12.43,92.17H.83v11.74h11.6Z" transform="translate(-0.83 0.83)"/><path class="cls-3" d="M12.43,78.87H.83V90.61h11.6Z" transform="translate(-0.83 0.83)"/><path class="cls-3" d="M25.6,78.87H14V90.61H25.6Z" transform="translate(-0.83 0.83)"/><path class="cls-3" d="M78.23,78.87H66.63V90.61h11.6Z" transform="translate(-0.83 0.83)"/><path class="cls-3" d="M91.36,78.87H79.75V90.61H91.36Z" transform="translate(-0.83 0.83)"/><path class="cls-3" d="M91.36,65.61H79.75V77.35H91.36Z" transform="translate(-0.83 0.83)"/><path class="cls-3" d="M78.23,65.61H66.63V77.35h11.6Z" transform="translate(-0.83 0.83)"/><path class="cls-3" d="M25.6,65.61H14V77.35H25.6Z" transform="translate(-0.83 0.83)"/><path class="cls-3" d="M12.43,65.61H.83V77.35h11.6Z" transform="translate(-0.83 0.83)"/><path class="cls-3" d="M12.43,52.3H.83V64h11.6Z" transform="translate(-0.83 0.83)"/><path class="cls-3" d="M25.6,52.3H14V64H25.6Z" transform="translate(-0.83 0.83)"/><path class="cls-3" d="M38.73,52.3H27.12V64H38.73Z" transform="translate(-0.83 0.83)"/><path class="cls-3" d="M51.89,52.3H40.29V64h11.6Z" transform="translate(-0.83 0.83)"/><path class="cls-3" d="M65.06,52.3H53.46V64h11.6Z" transform="translate(-0.83 0.83)"/><path class="cls-3" d="M78.23,52.3H66.63V64h11.6Z" transform="translate(-0.83 0.83)"/><path class="cls-3" d="M91.36,52.3H79.75V64H91.36Z" transform="translate(-0.83 0.83)"/><path class="cls-3" d="M91.36,39H79.75V50.78H91.36Z" transform="translate(-0.83 0.83)"/><path class="cls-3" d="M91.36,25.74H79.75V37.48H91.36Z" transform="translate(-0.83 0.83)"/><path class="cls-3" d="M91.36,12.47H79.75V24.21H91.36Z" transform="translate(-0.83 0.83)"/><path class="cls-3" d="M91.36-.83H79.75V10.91H91.36Z" transform="translate(-0.83 0.83)"/><path class="cls-3" d="M78.23-.83H66.63V10.91h11.6Z" transform="translate(-0.83 0.83)"/><path class="cls-3" d="M78.23,12.47H66.63V24.21h11.6Z" transform="translate(-0.83 0.83)"/><path class="cls-3" d="M78.23,25.74H66.63V37.48h11.6Z" transform="translate(-0.83 0.83)"/><path class="cls-3" d="M78.23,39H66.63V50.78h11.6Z" transform="translate(-0.83 0.83)"/><path class="cls-3" d="M65.06,39H53.46V50.78h11.6Z" transform="translate(-0.83 0.83)"/><path class="cls-3" d="M51.89,39H40.29V50.78h11.6Z" transform="translate(-0.83 0.83)"/><path class="cls-3" d="M38.73,39H27.12V50.78H38.73Z" transform="translate(-0.83 0.83)"/><path class="cls-3" d="M25.6,39H14V50.78H25.6Z" transform="translate(-0.83 0.83)"/></g></svg>