<svg id="Layer_1" data-name="Layer 1" xmlns="http://www.w3.org/2000/svg" xmlns:xlink="http://www.w3.org/1999/xlink" viewBox="0 0 393.17 157"><defs><style>.cls-1{fill:none;}.cls-2{clip-path:url(#clip-path);}.cls-3{fill:url(#linear-gradient);}.cls-4{fill:url(#linear-gradient-3);}.cls-5{fill:url(#linear-gradient-6);}.cls-6{fill:url(#linear-gradient-7);}.cls-7{fill:url(#linear-gradient-8);}.cls-8{fill:url(#linear-gradient-9);}.cls-9{fill:url(#linear-gradient-15);}.cls-10{fill:url(#linear-gradient-16);}.cls-11{fill:url(#linear-gradient-19);}.cls-12{fill:url(#linear-gradient-21);}.cls-13{fill:url(#linear-gradient-22);}.cls-14{fill:url(#linear-gradient-23);}.cls-15{fill:url(#linear-gradient-24);}.cls-16{fill:url(#linear-gradient-25);}.cls-17{fill:url(#linear-gradient-26);}.cls-18{fill:url(#linear-gradient-27);}.cls-19{fill:url(#linear-gradient-28);}.cls-20{fill:url(#linear-gradient-29);}.cls-21{fill:url(#linear-gradient-30);}.cls-22{fill:url(#linear-gradient-31);}.cls-23{fill:url(#linear-gradient-45);}.cls-24{fill:url(#linear-gradient-46);}.cls-25{fill:url(#linear-gradient-48);}.cls-26{fill:url(#linear-gradient-50);}.cls-27{fill:url(#linear-gradient-52);}.cls-28{fill:url(#linear-gradient-53);}.cls-29{fill:url(#linear-gradient-54);}.cls-30{fill:url(#linear-gradient-57);}.cls-31{fill:url(#linear-gradient-58);}.cls-32{fill:url(#linear-gradient-59);}.cls-33{fill:url(#linear-gradient-60);}.cls-34{fill:url(#linear-gradient-65);}.cls-35{fill:url(#linear-gradient-67);}.cls-36{fill:url(#linear-gradient-68);}.cls-37{fill:url(#linear-gradient-71);}.cls-38{fill:url(#linear-gradient-72);}.cls-39{fill:url(#linear-gradient-74);}.cls-40{fill:url(#linear-gradient-75);}.cls-41{fill:url(#linear-gradient-84);}.cls-42{fill:url(#linear-gradient-85);}.cls-43{fill:url(#linear-gradient-86);}.cls-44{fill:url(#linear-gradient-87);}.cls-45{fill:url(#linear-gradient-88);}.cls-46{fill:url(#linear-gradient-89);}.cls-47{fill:url(#linear-gradient-90);}.cls-48{fill:url(#linear-gradient-91);}.cls-49{fill:url(#linear-gradient-92);}.cls-50{fill:url(#linear-gradient-93);}.cls-51{fill:url(#linear-gradient-94);}.cls-52{fill:url(#linear-gradient-95);}.cls-53{fill:url(#linear-gradient-97);}.cls-54{fill:url(#linear-gradient-102);}.cls-55{fill:url(#linear-gradient-103);}.cls-56{fill:url(#linear-gradient-108);}.cls-57{fill:url(#linear-gradient-109);}.cls-58{fill:url(#linear-gradient-110);}.cls-59{fill:url(#linear-gradient-111);}.cls-60{fill:url(#linear-gradient-112);}.cls-61{fill:url(#linear-gradient-113);}.cls-62{fill:url(#linear-gradient-114);}.cls-63{fill:url(#linear-gradient-115);}.cls-64{fill:url(#linear-gradient-116);}.cls-65{fill:url(#linear-gradient-117);}.cls-66{fill:url(#linear-gradient-118);}.cls-67{fill:url(#linear-gradient-119);}.cls-68{fill:url(#linear-gradient-120);}.cls-69{fill:url(#linear-gradient-121);}.cls-70{fill:url(#linear-gradient-122);}.cls-71{fill:url(#linear-gradient-123);}.cls-72{fill:url(#linear-gradient-124);}.cls-73{fill:url(#linear-gradient-129);}.cls-74{fill:url(#linear-gradient-130);}.cls-75{fill:url(#linear-gradient-131);}.cls-76{fill:url(#linear-gradient-132);}.cls-77{fill:url(#linear-gradient-133);}.cls-78{fill:url(#linear-gradient-134);}.cls-79{fill:url(#linear-gradient-135);}.cls-80{fill:url(#linear-gradient-144);}.cls-81{fill:url(#linear-gradient-145);}.cls-82{fill:url(#linear-gradient-146);}</style><clipPath id="clip-path" transform="translate(-1.33)"><rect class="cls-1" x="0.5" width="394" height="157"/></clipPath><linearGradient id="linear-gradient" x1="375.57" y1="158" x2="375.57" y2="1" gradientTransform="matrix(1, 0, 0, -1, 0, 158)" gradientUnits="userSpaceOnUse"><stop offset="0.1" stop-color="#5f6eef"/><stop offset="0.35" stop-color="#e65688"/><stop offset="0.5" stop-color="#ff7b22"/><stop offset="0.65" stop-color="#efee02"/><stop offset="0.8" stop-color="#73f25f"/><stop offset="1" stop-color="#4494f8"/></linearGradient><linearGradient id="linear-gradient-3" x1="388.7" y1="158" x2="388.7" y2="1" xlink:href="#linear-gradient"/><linearGradient id="linear-gradient-6" x1="388.7" y1="158" x2="388.7" y2="1" xlink:href="#linear-gradient"/><linearGradient id="linear-gradient-7" x1="388.7" y1="158" x2="388.7" y2="1.01" xlink:href="#linear-gradient"/><linearGradient id="linear-gradient-8" x1="375.57" y1="158" x2="375.57" y2="1.01" xlink:href="#linear-gradient"/><linearGradient id="linear-gradient-9" x1="375.57" y1="158" x2="375.57" y2="1" xlink:href="#linear-gradient"/><linearGradient id="linear-gradient-15" x1="362.41" y1="158" x2="362.41" y2="1" xlink:href="#linear-gradient"/><linearGradient id="linear-gradient-16" x1="349.24" y1="158" x2="349.24" y2="1" xlink:href="#linear-gradient"/><linearGradient id="linear-gradient-19" x1="336.07" y1="158" x2="336.07" y2="1" xlink:href="#linear-gradient"/><linearGradient id="linear-gradient-21" x1="362.41" y1="158" x2="362.41" y2="1.01" xlink:href="#linear-gradient"/><linearGradient id="linear-gradient-22" x1="362.41" y1="158" x2="362.41" y2="1" xlink:href="#linear-gradient"/><linearGradient id="linear-gradient-23" x1="349.24" y1="158" x2="349.24" y2="1.01" xlink:href="#linear-gradient"/><linearGradient id="linear-gradient-24" x1="349.24" y1="158" x2="349.24" y2="1" xlink:href="#linear-gradient"/><linearGradient id="linear-gradient-25" x1="336.07" y1="158" x2="336.07" y2="1.01" xlink:href="#linear-gradient"/><linearGradient id="linear-gradient-26" x1="336.07" y1="158" x2="336.07" y2="1" xlink:href="#linear-gradient"/><linearGradient id="linear-gradient-27" x1="322.9" y1="158" x2="322.9" y2="1.01" xlink:href="#linear-gradient"/><linearGradient id="linear-gradient-28" x1="322.9" y1="158" x2="322.9" y2="1" xlink:href="#linear-gradient"/><linearGradient id="linear-gradient-29" x1="309.78" y1="158" x2="309.78" y2="1" xlink:href="#linear-gradient"/><linearGradient id="linear-gradient-30" x1="322.9" y1="158" x2="322.9" y2="1" xlink:href="#linear-gradient"/><linearGradient id="linear-gradient-31" x1="309.78" y1="158" x2="309.78" y2="1" xlink:href="#linear-gradient"/><linearGradient id="linear-gradient-45" x1="243.98" y1="158" x2="243.98" y2="1" xlink:href="#linear-gradient"/><linearGradient id="linear-gradient-46" x1="257.15" y1="158" x2="257.15" y2="1" xlink:href="#linear-gradient"/><linearGradient id="linear-gradient-48" x1="270.27" y1="158" x2="270.27" y2="1" xlink:href="#linear-gradient"/><linearGradient id="linear-gradient-50" x1="283.44" y1="158" x2="283.44" y2="1" xlink:href="#linear-gradient"/><linearGradient id="linear-gradient-52" x1="230.81" y1="158" x2="230.81" y2="1" xlink:href="#linear-gradient"/><linearGradient id="linear-gradient-53" x1="243.98" y1="158" x2="243.98" y2="1" xlink:href="#linear-gradient"/><linearGradient id="linear-gradient-54" x1="230.81" y1="158" x2="230.81" y2="1" xlink:href="#linear-gradient"/><linearGradient id="linear-gradient-57" x1="230.81" y1="158" x2="230.81" y2="1.01" xlink:href="#linear-gradient"/><linearGradient id="linear-gradient-58" x1="217.65" y1="158" x2="217.65" y2="1.01" xlink:href="#linear-gradient"/><linearGradient id="linear-gradient-59" x1="217.65" y1="158" x2="217.65" y2="1" xlink:href="#linear-gradient"/><linearGradient id="linear-gradient-60" x1="217.65" y1="158" x2="217.65" y2="1" xlink:href="#linear-gradient"/><linearGradient id="linear-gradient-65" x1="138.72" y1="158" x2="138.72" y2="1" xlink:href="#linear-gradient"/><linearGradient id="linear-gradient-67" x1="151.85" y1="158" x2="151.85" y2="1" xlink:href="#linear-gradient"/><linearGradient id="linear-gradient-68" x1="165.02" y1="158" x2="165.02" y2="1" xlink:href="#linear-gradient"/><linearGradient id="linear-gradient-71" x1="178.19" y1="158" x2="178.19" y2="1" xlink:href="#linear-gradient"/><linearGradient id="linear-gradient-72" x1="191.35" y1="158" x2="191.35" y2="1" xlink:href="#linear-gradient"/><linearGradient id="linear-gradient-74" x1="178.19" y1="158" x2="178.19" y2="1.01" xlink:href="#linear-gradient"/><linearGradient id="linear-gradient-75" x1="191.35" y1="158" x2="191.35" y2="1.01" xlink:href="#linear-gradient"/><linearGradient id="linear-gradient-84" x1="191.35" y1="158" x2="191.35" y2="1" xlink:href="#linear-gradient"/><linearGradient id="linear-gradient-85" x1="178.19" y1="158" x2="178.19" y2="1" xlink:href="#linear-gradient"/><linearGradient id="linear-gradient-86" x1="178.19" y1="158" x2="178.19" y2="1" xlink:href="#linear-gradient"/><linearGradient id="linear-gradient-87" x1="165.02" y1="158" x2="165.02" y2="1" xlink:href="#linear-gradient"/><linearGradient id="linear-gradient-88" x1="165.02" y1="158" x2="165.02" y2="1" xlink:href="#linear-gradient"/><linearGradient id="linear-gradient-89" x1="151.85" y1="158" x2="151.85" y2="1" xlink:href="#linear-gradient"/><linearGradient id="linear-gradient-90" x1="151.85" y1="158" x2="151.85" y2="1" xlink:href="#linear-gradient"/><linearGradient id="linear-gradient-91" x1="138.72" y1="158" x2="138.72" y2="1" xlink:href="#linear-gradient"/><linearGradient id="linear-gradient-92" x1="138.72" y1="158" x2="138.72" y2="1" xlink:href="#linear-gradient"/><linearGradient id="linear-gradient-93" x1="125.56" y1="158" x2="125.56" y2="1" xlink:href="#linear-gradient"/><linearGradient id="linear-gradient-94" x1="125.56" y1="158" x2="125.56" y2="1" xlink:href="#linear-gradient"/><linearGradient id="linear-gradient-95" x1="125.56" y1="158" x2="125.56" y2="1" xlink:href="#linear-gradient"/><linearGradient id="linear-gradient-97" x1="125.56" y1="158" x2="125.56" y2="1" xlink:href="#linear-gradient"/><linearGradient id="linear-gradient-102" x1="112.39" y1="158" x2="112.39" y2="1" xlink:href="#linear-gradient"/><linearGradient id="linear-gradient-103" x1="112.39" y1="158" x2="112.39" y2="1.01" xlink:href="#linear-gradient"/><linearGradient id="linear-gradient-108" x1="112.39" y1="158" x2="112.39" y2="1" xlink:href="#linear-gradient"/><linearGradient id="linear-gradient-109" x1="20.3" y1="158" x2="20.3" y2="1" xlink:href="#linear-gradient"/><linearGradient id="linear-gradient-110" x1="33.42" y1="158" x2="33.42" y2="1" xlink:href="#linear-gradient"/><linearGradient id="linear-gradient-111" x1="46.59" y1="158" x2="46.59" y2="1" xlink:href="#linear-gradient"/><linearGradient id="linear-gradient-112" x1="59.76" y1="158" x2="59.76" y2="1" xlink:href="#linear-gradient"/><linearGradient id="linear-gradient-113" x1="72.93" y1="158" x2="72.93" y2="1" xlink:href="#linear-gradient"/><linearGradient id="linear-gradient-114" x1="86.05" y1="158" x2="86.05" y2="1" xlink:href="#linear-gradient"/><linearGradient id="linear-gradient-115" x1="72.93" y1="158" x2="72.93" y2="1" xlink:href="#linear-gradient"/><linearGradient id="linear-gradient-116" x1="59.76" y1="158" x2="59.76" y2="1" xlink:href="#linear-gradient"/><linearGradient id="linear-gradient-117" x1="46.59" y1="158" x2="46.59" y2="1" xlink:href="#linear-gradient"/><linearGradient id="linear-gradient-118" x1="33.42" y1="158" x2="33.42" y2="1" xlink:href="#linear-gradient"/><linearGradient id="linear-gradient-119" x1="20.3" y1="158" x2="20.3" y2="1" xlink:href="#linear-gradient"/><linearGradient id="linear-gradient-120" x1="7.13" y1="158" x2="7.13" y2="1" xlink:href="#linear-gradient"/><linearGradient id="linear-gradient-121" x1="7.13" y1="158" x2="7.13" y2="1" xlink:href="#linear-gradient"/><linearGradient id="linear-gradient-122" x1="20.3" y1="158" x2="20.3" y2="1" xlink:href="#linear-gradient"/><linearGradient id="linear-gradient-123" x1="72.93" y1="158" x2="72.93" y2="1" xlink:href="#linear-gradient"/><linearGradient id="linear-gradient-124" x1="86.05" y1="158" x2="86.05" y2="1" xlink:href="#linear-gradient"/><linearGradient id="linear-gradient-129" x1="7.13" y1="158" x2="7.13" y2="1" xlink:href="#linear-gradient"/><linearGradient id="linear-gradient-130" x1="20.3" y1="158" x2="20.3" y2="1" xlink:href="#linear-gradient"/><linearGradient id="linear-gradient-131" x1="33.42" y1="158" x2="33.42" y2="1" xlink:href="#linear-gradient"/><linearGradient id="linear-gradient-132" x1="46.59" y1="158" x2="46.59" y2="1" xlink:href="#linear-gradient"/><linearGradient id="linear-gradient-133" x1="59.76" y1="158" x2="59.76" y2="1" xlink:href="#linear-gradient"/><linearGradient id="linear-gradient-134" x1="72.93" y1="158" x2="72.93" y2="1" xlink:href="#linear-gradient"/><linearGradient id="linear-gradient-135" x1="86.05" y1="158" x2="86.05" y2="1" xlink:href="#linear-gradient"/><linearGradient id="linear-gradient-144" x1="59.76" y1="158" x2="59.76" y2="1" xlink:href="#linear-gradient"/><linearGradient id="linear-gradient-145" x1="46.59" y1="158" x2="46.59" y2="1" xlink:href="#linear-gradient"/><linearGradient id="linear-gradient-146" x1="33.42" y1="158" x2="33.42" y2="1" xlink:href="#linear-gradient"/></defs><g class="cls-2"><path class="cls-3" d="M381.38,53.35H369.77V65h11.61Z" transform="translate(-1.33)"/><path class="cls-3" d="M381.38,40.23H369.77V51.85h11.61Z" transform="translate(-1.33)"/><path class="cls-4" d="M394.5,53.35H382.9V65h11.6Z" transform="translate(-1.33)"/><path class="cls-4" d="M394.5,79.64H382.9V91.26h11.6Z" transform="translate(-1.33)"/><path class="cls-3" d="M381.38,79.64H369.77V91.26h11.61Z" transform="translate(-1.33)"/><path class="cls-5" d="M394.5,92.81H382.9v11.61h11.6Z" transform="translate(-1.33)"/><path class="cls-6" d="M394.5,106H382.9v11.62h11.6Z" transform="translate(-1.33)"/><path class="cls-7" d="M381.38,106H369.77v11.62h11.61Z" transform="translate(-1.33)"/><path class="cls-8" d="M381.38,92.81H369.77v11.61h11.61Z" transform="translate(-1.33)"/><path class="cls-4" d="M394.5,119.1H382.9v11.61h11.6Z" transform="translate(-1.33)"/><path class="cls-3" d="M381.38,119.1H369.77v11.61h11.61Z" transform="translate(-1.33)"/><path class="cls-4" d="M394.5,132.26H382.9v11.62h11.6Z" transform="translate(-1.33)"/><path class="cls-3" d="M381.38,132.26H369.77v11.62h11.61Z" transform="translate(-1.33)"/><path class="cls-3" d="M381.38,145.38H369.77V157h11.61Z" transform="translate(-1.33)"/><path class="cls-9" d="M368.21,132.26H356.6v11.62h11.61Z" transform="translate(-1.33)"/><path class="cls-10" d="M355,132.26h-11.6v11.62H355Z" transform="translate(-1.33)"/><path class="cls-9" d="M368.21,145.38H356.6V157h11.61Z" transform="translate(-1.33)"/><path class="cls-10" d="M355,145.38h-11.6V157H355Z" transform="translate(-1.33)"/><path class="cls-11" d="M341.87,132.26h-11.6v11.62h11.6Z" transform="translate(-1.33)"/><path class="cls-11" d="M341.87,145.38h-11.6V157h11.6Z" transform="translate(-1.33)"/><path class="cls-12" d="M368.21,106H356.6v11.62h11.61Z" transform="translate(-1.33)"/><path class="cls-13" d="M368.21,92.81H356.6v11.61h11.61Z" transform="translate(-1.33)"/><path class="cls-14" d="M355,106h-11.6v11.62H355Z" transform="translate(-1.33)"/><path class="cls-15" d="M355,92.81h-11.6v11.61H355Z" transform="translate(-1.33)"/><path class="cls-16" d="M341.87,106h-11.6v11.62h11.6Z" transform="translate(-1.33)"/><path class="cls-17" d="M341.87,92.81h-11.6v11.61h11.6Z" transform="translate(-1.33)"/><path class="cls-18" d="M328.7,106H317.1v11.62h11.6Z" transform="translate(-1.33)"/><path class="cls-19" d="M328.7,92.81H317.1v11.61h11.6Z" transform="translate(-1.33)"/><path class="cls-20" d="M315.58,92.81H304v11.61h11.6Z" transform="translate(-1.33)"/><path class="cls-21" d="M328.7,79.64H317.1V91.26h11.6Z" transform="translate(-1.33)"/><path class="cls-22" d="M315.58,79.64H304V91.26h11.6Z" transform="translate(-1.33)"/><path class="cls-5" d="M394.5,66.52H382.9V78.13h11.6Z" transform="translate(-1.33)"/><path class="cls-8" d="M381.38,66.52H369.77V78.13h11.61Z" transform="translate(-1.33)"/><path class="cls-19" d="M328.7,66.52H317.1V78.13h11.6Z" transform="translate(-1.33)"/><path class="cls-20" d="M315.58,66.52H304V78.13h11.6Z" transform="translate(-1.33)"/><path class="cls-22" d="M315.58,53.35H304V65h11.6Z" transform="translate(-1.33)"/><path class="cls-21" d="M328.7,53.35H317.1V65h11.6Z" transform="translate(-1.33)"/><path class="cls-21" d="M328.7,40.23H317.1V51.85h11.6Z" transform="translate(-1.33)"/><path class="cls-11" d="M341.87,53.35h-11.6V65h11.6Z" transform="translate(-1.33)"/><path class="cls-11" d="M341.87,40.23h-11.6V51.85h11.6Z" transform="translate(-1.33)"/><path class="cls-10" d="M355,53.35h-11.6V65H355Z" transform="translate(-1.33)"/><path class="cls-10" d="M355,40.23h-11.6V51.85H355Z" transform="translate(-1.33)"/><path class="cls-9" d="M368.21,53.35H356.6V65h11.61Z" transform="translate(-1.33)"/><path class="cls-9" d="M368.21,40.23H356.6V51.85h11.61Z" transform="translate(-1.33)"/><path class="cls-23" d="M249.78,66.52h-11.6V78.13h11.6Z" transform="translate(-1.33)"/><path class="cls-24" d="M263,53.35h-11.6V65H263Z" transform="translate(-1.33)"/><path class="cls-24" d="M263,40.23h-11.6V51.85H263Z" transform="translate(-1.33)"/><path class="cls-25" d="M276.08,53.35H264.47V65h11.61Z" transform="translate(-1.33)"/><path class="cls-25" d="M276.08,40.23H264.47V51.85h11.61Z" transform="translate(-1.33)"/><path class="cls-26" d="M289.24,53.35h-11.6V65h11.6Z" transform="translate(-1.33)"/><path class="cls-26" d="M289.24,40.23h-11.6V51.85h11.6Z" transform="translate(-1.33)"/><path class="cls-27" d="M236.62,53.35H225V65h11.61Z" transform="translate(-1.33)"/><path class="cls-28" d="M249.78,53.35h-11.6V65h11.6Z" transform="translate(-1.33)"/><path class="cls-29" d="M236.62,66.52H225V78.13h11.61Z" transform="translate(-1.33)"/><path class="cls-27" d="M236.62,79.64H225V91.26h11.61Z" transform="translate(-1.33)"/><path class="cls-29" d="M236.62,92.81H225v11.61h11.61Z" transform="translate(-1.33)"/><path class="cls-30" d="M236.62,106H225v11.62h11.61Z" transform="translate(-1.33)"/><path class="cls-31" d="M223.45,106H211.84v11.62h11.61Z" transform="translate(-1.33)"/><path class="cls-32" d="M223.45,92.81H211.84v11.61h11.61Z" transform="translate(-1.33)"/><path class="cls-33" d="M223.45,79.64H211.84V91.26h11.61Z" transform="translate(-1.33)"/><path class="cls-32" d="M223.45,66.52H211.84V78.13h11.61Z" transform="translate(-1.33)"/><path class="cls-33" d="M223.45,53.35H211.84V65h11.61Z" transform="translate(-1.33)"/><path class="cls-27" d="M236.62,40.23H225V51.85h11.61Z" transform="translate(-1.33)"/><path class="cls-33" d="M223.45,40.23H211.84V51.85h11.61Z" transform="translate(-1.33)"/><path class="cls-34" d="M144.53,13.17H132.92V24.78h11.61Z" transform="translate(-1.33)"/><path class="cls-34" d="M144.53,0H132.92V11.62h11.61Z" transform="translate(-1.33)"/><path class="cls-35" d="M157.65,0h-11.6V11.62h11.6Z" transform="translate(-1.33)"/><path class="cls-36" d="M170.82,0h-11.6V11.62h11.6Z" transform="translate(-1.33)"/><path class="cls-36" d="M170.82,13.17h-11.6V24.78h11.6Z" transform="translate(-1.33)"/><path class="cls-35" d="M157.65,13.17h-11.6V24.78h11.6Z" transform="translate(-1.33)"/><path class="cls-37" d="M184,0H172.38V11.62H184Z" transform="translate(-1.33)"/><path class="cls-38" d="M197.15,13.17h-11.6V24.78h11.6Z" transform="translate(-1.33)"/><path class="cls-37" d="M184,13.17H172.38V24.78H184Z" transform="translate(-1.33)"/><path class="cls-39" d="M184,26.29H172.38V37.91H184Z" transform="translate(-1.33)"/><path class="cls-40" d="M197.15,26.29h-11.6V37.91h11.6Z" transform="translate(-1.33)"/><path class="cls-38" d="M197.15,39.45h-11.6V51.07h11.6Z" transform="translate(-1.33)"/><path class="cls-37" d="M184,39.45H172.38V51.07H184Z" transform="translate(-1.33)"/><path class="cls-39" d="M184,52.58H172.38V64.19H184Z" transform="translate(-1.33)"/><path class="cls-40" d="M197.15,52.58h-11.6V64.19h11.6Z" transform="translate(-1.33)"/><path class="cls-38" d="M197.15,65.74h-11.6V77.36h11.6Z" transform="translate(-1.33)"/><path class="cls-37" d="M184,65.74H172.38V77.36H184Z" transform="translate(-1.33)"/><path class="cls-37" d="M184,78.87H172.38V90.48H184Z" transform="translate(-1.33)"/><path class="cls-38" d="M197.15,78.87h-11.6V90.48h11.6Z" transform="translate(-1.33)"/><path class="cls-41" d="M197.15,92h-11.6v11.62h11.6Z" transform="translate(-1.33)"/><path class="cls-42" d="M184,92H172.38v11.62H184Z" transform="translate(-1.33)"/><path class="cls-43" d="M184,105.2H172.38v11.61H184Z" transform="translate(-1.33)"/><path class="cls-44" d="M170.82,105.2h-11.6v11.61h11.6Z" transform="translate(-1.33)"/><path class="cls-45" d="M170.82,92h-11.6v11.62h11.6Z" transform="translate(-1.33)"/><path class="cls-46" d="M157.65,105.2h-11.6v11.61h11.6Z" transform="translate(-1.33)"/><path class="cls-47" d="M157.65,92h-11.6v11.62h11.6Z" transform="translate(-1.33)"/><path class="cls-48" d="M144.53,105.2H132.92v11.61h11.61Z" transform="translate(-1.33)"/><path class="cls-49" d="M144.53,92H132.92v11.62h11.61Z" transform="translate(-1.33)"/><path class="cls-50" d="M131.36,105.2h-11.6v11.61h11.6Z" transform="translate(-1.33)"/><path class="cls-51" d="M131.36,92h-11.6v11.62h11.6Z" transform="translate(-1.33)"/><path class="cls-52" d="M131.36,78.87h-11.6V90.48h11.6Z" transform="translate(-1.33)"/><path class="cls-52" d="M131.36,65.74h-11.6V77.36h11.6Z" transform="translate(-1.33)"/><path class="cls-53" d="M131.36,52.58h-11.6V64.19h11.6Z" transform="translate(-1.33)"/><path class="cls-52" d="M131.36,39.45h-11.6V51.07h11.6Z" transform="translate(-1.33)"/><path class="cls-53" d="M131.36,26.29h-11.6V37.91h11.6Z" transform="translate(-1.33)"/><path class="cls-52" d="M131.36,13.17h-11.6V24.78h11.6Z" transform="translate(-1.33)"/><path class="cls-52" d="M131.36,0h-11.6V11.62h11.6Z" transform="translate(-1.33)"/><path class="cls-54" d="M118.19,13.17h-11.6V24.78h11.6Z" transform="translate(-1.33)"/><path class="cls-55" d="M118.19,26.29h-11.6V37.91h11.6Z" transform="translate(-1.33)"/><path class="cls-54" d="M118.19,39.45h-11.6V51.07h11.6Z" transform="translate(-1.33)"/><path class="cls-55" d="M118.19,52.58h-11.6V64.19h11.6Z" transform="translate(-1.33)"/><path class="cls-54" d="M118.19,65.74h-11.6V77.36h11.6Z" transform="translate(-1.33)"/><path class="cls-54" d="M118.19,78.87h-11.6V90.48h11.6Z" transform="translate(-1.33)"/><path class="cls-56" d="M118.19,92h-11.6v11.62h11.6Z" transform="translate(-1.33)"/><path class="cls-57" d="M26.1,105.2H14.5v11.61H26.1Z" transform="translate(-1.33)"/><path class="cls-58" d="M39.23,105.2H27.62v11.61H39.23Z" transform="translate(-1.33)"/><path class="cls-59" d="M52.39,105.2H40.79v11.61h11.6Z" transform="translate(-1.33)"/><path class="cls-60" d="M65.56,105.2H54v11.61h11.6Z" transform="translate(-1.33)"/><path class="cls-61" d="M78.73,105.2H67.13v11.61h11.6Z" transform="translate(-1.33)"/><path class="cls-62" d="M91.86,92H80.25v11.62H91.86Z" transform="translate(-1.33)"/><path class="cls-63" d="M78.73,92H67.13v11.62h11.6Z" transform="translate(-1.33)"/><path class="cls-64" d="M65.56,92H54v11.62h11.6Z" transform="translate(-1.33)"/><path class="cls-65" d="M52.39,92H40.79v11.62h11.6Z" transform="translate(-1.33)"/><path class="cls-66" d="M39.23,92H27.62v11.62H39.23Z" transform="translate(-1.33)"/><path class="cls-67" d="M26.1,92H14.5v11.62H26.1Z" transform="translate(-1.33)"/><path class="cls-68" d="M12.93,92H1.33v11.62h11.6Z" transform="translate(-1.33)"/><path class="cls-69" d="M12.93,78.87H1.33V90.48h11.6Z" transform="translate(-1.33)"/><path class="cls-70" d="M26.1,78.87H14.5V90.48H26.1Z" transform="translate(-1.33)"/><path class="cls-71" d="M78.73,78.87H67.13V90.48h11.6Z" transform="translate(-1.33)"/><path class="cls-72" d="M91.86,78.87H80.25V90.48H91.86Z" transform="translate(-1.33)"/><path class="cls-72" d="M91.86,65.74H80.25V77.36H91.86Z" transform="translate(-1.33)"/><path class="cls-71" d="M78.73,65.74H67.13V77.36h11.6Z" transform="translate(-1.33)"/><path class="cls-70" d="M26.1,65.74H14.5V77.36H26.1Z" transform="translate(-1.33)"/><path class="cls-69" d="M12.93,65.74H1.33V77.36h11.6Z" transform="translate(-1.33)"/><path class="cls-73" d="M12.93,52.58H1.33V64.19h11.6Z" transform="translate(-1.33)"/><path class="cls-74" d="M26.1,52.58H14.5V64.19H26.1Z" transform="translate(-1.33)"/><path class="cls-75" d="M39.23,52.58H27.62V64.19H39.23Z" transform="translate(-1.33)"/><path class="cls-76" d="M52.39,52.58H40.79V64.19h11.6Z" transform="translate(-1.33)"/><path class="cls-77" d="M65.56,52.58H54V64.19h11.6Z" transform="translate(-1.33)"/><path class="cls-78" d="M78.73,52.58H67.13V64.19h11.6Z" transform="translate(-1.33)"/><path class="cls-79" d="M91.86,52.58H80.25V64.19H91.86Z" transform="translate(-1.33)"/><path class="cls-72" d="M91.86,39.45H80.25V51.07H91.86Z" transform="translate(-1.33)"/><path class="cls-79" d="M91.86,26.29H80.25V37.91H91.86Z" transform="translate(-1.33)"/><path class="cls-72" d="M91.86,13.17H80.25V24.78H91.86Z" transform="translate(-1.33)"/><path class="cls-72" d="M91.86,0H80.25V11.62H91.86Z" transform="translate(-1.33)"/><path class="cls-71" d="M78.73,0H67.13V11.62h11.6Z" transform="translate(-1.33)"/><path class="cls-71" d="M78.73,13.17H67.13V24.78h11.6Z" transform="translate(-1.33)"/><path class="cls-78" d="M78.73,26.29H67.13V37.91h11.6Z" transform="translate(-1.33)"/><path class="cls-71" d="M78.73,39.45H67.13V51.07h11.6Z" transform="translate(-1.33)"/><path class="cls-80" d="M65.56,39.45H54V51.07h11.6Z" transform="translate(-1.33)"/><path class="cls-81" d="M52.39,39.45H40.79V51.07h11.6Z" transform="translate(-1.33)"/><path class="cls-82" d="M39.23,39.45H27.62V51.07H39.23Z" transform="translate(-1.33)"/><path class="cls-70" d="M26.1,39.45H14.5V51.07H26.1Z" transform="translate(-1.33)"/></g></svg>